<svg width="48" height="36" viewBox="0 0 48 36" xmlns="http://www.w3.org/2000/svg"><title>imageadd</title><path d="M39 18c-4.966 0-9 4.03-9 9s4.034 9 9 9 9-4.03 9-9-4.034-9-9-9zm5 10h-4v4h-2v-4h-4v-2h4v-4h2v4h4v2zM8 28l8-11.92L20.96 20 26 12l3.706 5.928c-2.542 2.606-3.954 6.178-3.654 10.072H8zm21.64 8H0V0h44v15.002c-1.246-.522-2.594-.844-4-.952V4H4v28h23.004c.624 1.498 1.53 2.848 2.636 4zM11 14c-1.656 0-3-1.342-3-3 0-1.656 1.344-3 3-3s3 1.344 3 3c0 1.658-1.344 3-3 3z" fill-rule="nonzero" fill="#00569F"/></svg>