<svg width="51" height="36" viewBox="0 0 51 36" xmlns="http://www.w3.org/2000/svg" xmlns:xlink="http://www.w3.org/1999/xlink"><title>Page 1</title><defs><path id="a" d="M0 36h51V0H0z"/></defs><g fill="none" fill-rule="evenodd"><mask id="b" fill="#fff"><use xlink:href="#a"/></mask><path d="M20.175 25.095V10.68l13.537 7.056-13.537 7.36zM50.49 7.765s-.498-3.526-2.027-5.08C46.523.648 44.35.638 43.353.52 36.217 0 25.51 0 25.51 0h-.02S14.783 0 7.646.518c-.997.12-3.17.13-5.11 2.168C1.007 4.24.51 7.766.51 7.766S0 11.908 0 16.05v3.883c0 4.143.51 8.285.51 8.285s.498 3.527 2.027 5.08c1.94 2.04 4.488 1.974 5.623 2.188 4.08.392 17.34.514 17.34.514s10.717-.016 17.853-.534c.997-.12 3.17-.13 5.11-2.168 1.53-1.553 2.028-5.08 2.028-5.08s.51-4.142.51-8.285V16.05c0-4.142-.51-8.284-.51-8.284z" fill="#00569F" mask="url(#b)"/></g></svg>