<svg width="49" height="36" viewBox="0 0 49 36" xmlns="http://www.w3.org/2000/svg"><title>Imagelink</title><path d="M14 11c0-1.656-1.344-3-3-3s-3 1.344-3 3c0 1.658 1.344 3 3 3s3-1.342 3-3zm17.188 9.72c.44-.44.926-.802 1.444-1.088 2.887-1.59 6.59-.745 8.445 2.07l-2.246 2.244c-.643-1.47-2.242-2.305-3.833-1.95-.6.135-1.168.434-1.633.9L29.06 27.2c-1.307 1.308-1.307 3.434 0 4.74 1.307 1.308 3.433 1.308 4.74 0l1.327-1.326c1.207.48 2.5.67 3.78.575l-2.93 2.928c-2.51 2.51-6.582 2.51-9.093 0-2.51-2.51-2.51-6.582 0-9.093l4.304-4.306zm6.836-6.837l-2.93 2.93c1.278-.097 2.573.095 3.78.573L40.2 16.06c1.307-1.307 3.433-1.307 4.74 0 1.307 1.307 1.307 3.433 0 4.74l-4.305 4.305c-1.31 1.31-3.44 1.3-4.74 0-.303-.303-.564-.68-.727-1.05l-2.246 2.244c.236.357.48.666.796.98.812.813 1.846 1.418 3.036 1.705 1.542.37 3.194.166 4.613-.617.518-.286 1.005-.648 1.444-1.087l4.305-4.304c2.512-2.51 2.512-6.582 0-9.093-2.51-2.51-6.58-2.51-9.09 0zm-8.884 3.143L26 12l-5.04 8L16 16.08 8 28h13.388c.288-2.278 1.26-4.484 3.006-6.228l4.746-4.746zM21.632 32H4V4h36v4.252c.598-.124 1.208-.192 1.832-.192.742 0 1.464.12 2.168.294V0H0v36h23.636c-.964-1.21-1.636-2.566-2.004-4z" fill-rule="nonzero" fill="#00569F"/></svg>