<svg width="200" height="139" viewBox="0 0 200 139" xmlns="http://www.w3.org/2000/svg"><title>Page 1</title><g fill="none" fill-rule="evenodd"><path fill="#FFF" d="M89.777 12.878l5.51-12.33 7.318 11.348 8.11-10.793 4.614 12.695 10.303-8.714 1.678 13.405 11.983-6.2-1.34 13.443 13.056-3.37-4.294 12.805 13.48-.376-7.03 11.528 13.224 2.64-9.414 9.67 12.307 5.52-11.327 7.332 10.773 8.125-12.672 4.622 8.697 10.323-13.38 1.68 6.187 12.005-13.418-1.344 3.366 13.082-12.783-4.3.375 13.503-11.507-7.044-2.633 13.25-9.654-9.432-5.51 12.33-7.318-11.348-8.11 10.792-4.614-12.694-10.304 8.713-1.678-13.404-11.982 6.198 1.34-13.442-13.057 3.372 4.293-12.806-13.48.375 7.032-11.53-13.225-2.637L44.11 80.2 31.8 74.68l11.327-7.33-10.774-8.126 12.67-4.622-8.696-10.324 13.38-1.68-6.188-12.005 13.418 1.344-3.365-13.082 12.783 4.302-.375-13.504 11.506 7.043 2.633-13.25"/><path fill="#FF0C15" d="M110.707 122.803l9.117 8.906 2.487-12.51 10.867 6.65-.355-12.753 12.07 4.06-3.177-12.35 12.67 1.267-5.84-11.335 12.632-1.587-8.212-9.748 11.964-4.365-10.173-7.674 10.695-6.92-11.62-5.215 8.89-9.13-12.49-2.493 6.64-10.886-12.73.356 4.055-12.093-12.33 3.184 1.267-12.693-11.315 5.852-1.585-12.657-9.73 8.227L110.15 4.91l-7.66 10.19-6.91-10.714-5.203 11.643-9.116-8.907-2.486 12.51-10.866-6.65.355 12.75-12.07-4.06 3.177 12.353-12.67-1.27 5.84 11.336-12.633 1.587 8.214 9.748-11.965 4.364 10.173 7.673-10.696 6.922L47.254 79.6l-8.89 9.133 12.488 2.49-6.64 10.887 12.73-.355-4.055 12.093 12.33-3.184-1.266 12.694 11.315-5.853 1.584 12.657 9.73-8.227 4.356 11.987 7.66-10.19 6.908 10.714"/><path d="M95.245 0l-5.553 12.428-9.73-9.507-2.656 13.356-11.598-7.1.378 13.612L53.2 18.453l3.393 13.186-13.525-1.355 6.237 12.1-13.487 1.694 8.767 10.404-12.77 4.66 10.857 8.19-11.418 7.39 12.406 5.563-9.49 9.75 13.33 2.658-7.085 11.62 13.586-.38-4.327 12.91 13.162-3.4-1.352 13.55 12.077-6.246 1.692 13.51 10.386-8.784 4.65 12.796 8.176-10.878 7.375 11.437 5.553-12.427 9.73 9.507 2.656-13.354 11.596 7.1-.377-13.613 12.883 4.336-3.39-13.188 13.523 1.355-6.235-12.1 13.486-1.694-8.766-10.406 12.77-4.658-10.857-8.192 11.417-7.39-12.405-5.563 9.49-9.75-13.33-2.66 7.085-11.62-13.586.38 4.327-12.908-13.16 3.398 1.35-13.55-12.075 6.248-1.692-13.51-10.387 8.782L110.796.56l-8.175 10.878L95.246 0zm.084 1.097l7.258 11.257 8.046-10.707 4.577 12.593 10.223-8.643 1.665 13.297 11.887-6.15-1.33 13.336 12.952-3.343-4.258 12.704 13.37-.372-6.974 11.436 13.12 2.618-9.34 9.595 12.21 5.476-11.237 7.272 10.685 8.062-12.57 4.585 8.628 10.24-13.27 1.67 6.135 11.907-13.31-1.334 3.338 12.978-12.68-4.268.37 13.397-11.414-6.987-2.613 13.144-9.578-9.356-5.467 12.23-7.26-11.256-8.045 10.706-4.576-12.593-10.223 8.645-1.663-13.298-11.887 6.15 1.33-13.337-12.953 3.345 4.26-12.704-13.373.374 6.975-11.437-13.12-2.617 9.34-9.595-12.21-5.477 11.235-7.272-10.686-8.06 12.57-4.586-8.63-10.24 13.274-1.67-6.138-11.907 13.312 1.333-3.34-12.978 12.682 4.267-.373-13.397 11.416 6.987 2.612-13.143 9.578 9.357L95.33 1.096z" fill="#000"/><path fill="#FEEC04" d="M172.315 88.33l-131.45 25.124-4.306-22.612L168.01 65.72"/><path fill="#000" d="M43.16 95.062l6.276-1.2.488 2.562-3.385.647.527 2.774 2.75-.525.488 2.56-2.75.525.9 4.735-2.89.553M54.745 89.26l2.01-.385.47 2.473-2.01.384-.47-2.473zm2.066 13.63c1.5-.288 1.867-2.006 1.443-4.23-.42-2.21-1.373-3.566-2.872-3.28-1.497.287-1.9 1.92-1.485 4.093.43 2.26 1.417 3.702 2.916 3.416zm-5.186-13.034l2.028-.388.47 2.473-2.027.39-.47-2.474zm3.23 2.752c3.314-.634 5.69 1.768 6.397 5.477.71 3.728-.596 6.943-3.91 7.577-3.316.634-5.692-1.86-6.408-5.622-.7-3.675.606-6.8 3.92-7.432zM65.895 96.76c.757-.146 1.26-.864 1.062-1.908-.114-.6-.403-1.057-.77-1.262-.263-.132-.58-.164-.81-.12l-.652.125.622 3.27.548-.106zm-4.55-5.173l3.986-.762c.494-.094 1.152-.092 1.708.04 1.36.326 2.466 1.433 2.79 3.13.29 1.535-.176 3.015-1.053 3.88l.007.034s.216.178.585.675l2.865 4.012-3.174.606-2.542-3.945-.687.132.813 4.275-2.892.552-2.404-12.63zM74.697 85.446l2.01-.384.47 2.473-2.01.384-.47-2.474zm2.47 10.953l-.972-2.415c-.33-.78-.785-2.103-.785-2.103l-.07.014s.083 1.394.062 2.24l-.017 2.603 1.78-.34zm-5.59-10.357l2.027-.388.47 2.473-2.027.388-.47-2.473zm1.68 3.267l3.14-.6 5.578 12.024-2.89.553-1.042-2.585-2.662.51v2.783l-2.89.553.768-13.238zM80.285 87.967l3.05-.583 3.262 5.418c.514.78 1.018 1.985 1.018 1.985l.07-.014s-.41-1.295-.562-2.09l-1.107-5.812 2.716-.517 2.405 12.63-3.033.58-3.276-5.397c-.5-.802-1.002-2.006-1.002-2.006l-.07.014s.41 1.294.56 2.09l1.107 5.81-2.733.524-2.405-12.63zM96.05 95.39c1.48-.283 2.026-1.742 1.555-4.216-.467-2.455-1.556-3.565-2.984-3.292l-.722.137 1.43 7.508.722-.14zm-5.532-9.38l3.686-.703c3.227-.616 5.624 1.323 6.38 5.298.758 3.975-.748 6.716-3.976 7.333l-3.685.704-2.405-12.63zM105.23 89.242c.758-.145 1.26-.864 1.062-1.907-.114-.6-.402-1.057-.77-1.262-.263-.133-.58-.164-.81-.12l-.65.125.62 3.268.547-.104zm-4.55-5.173l3.987-.762c.493-.095 1.15-.093 1.706.04 1.36.325 2.466 1.432 2.79 3.128.292 1.537-.175 3.017-1.052 3.88l.007.036s.217.178.585.676l2.866 4.01-3.174.607-2.543-3.945-.686.132.814 4.275-2.892.553-2.405-12.63zM116.5 88.88l-.97-2.413c-.33-.78-.784-2.102-.784-2.102l-.07.013s.082 1.395.06 2.24l-.015 2.603 1.78-.34zm-3.907-7.087l3.14-.6 5.578 12.024-2.89.552-1.04-2.585-2.663.51v2.782l-2.893.553.77-13.237zM124.17 85.622c.757-.145 1.26-.864 1.06-1.906-.112-.6-.4-1.058-.77-1.263-.262-.132-.578-.164-.807-.12l-.652.125.623 3.268.546-.104zm-4.55-5.172l3.986-.762c.494-.095 1.152-.093 1.707.04 1.36.326 2.466 1.432 2.79 3.13.29 1.535-.176 3.015-1.053 3.88l.007.034s.216.18.585.676l2.865 4.012-3.173.606-2.543-3.945-.686.132.814 4.276-2.892.552-2.406-12.63zM138.427 84.69l-.97-2.413c-.332-.78-.785-2.102-.785-2.102l-.07.013s.083 1.394.06 2.24l-.015 2.603 1.78-.34zm-3.907-7.088l3.138-.6 5.58 12.025-2.893.552-1.04-2.585-2.663.508v2.784l-2.892.552.77-13.238zM141.547 76.26l2.892-.554 1.917 10.07 3.79-.725.488 2.563-6.682 1.277M149.04 74.827l2.89-.553 1.918 10.07 3.79-.725.49 2.56-6.684 1.278M157.96 75.777l-2.77.53-.487-2.563 8.43-1.61.487 2.56-2.786.533 1.917 10.07-2.873.55"/><g fill="#000"><path d="M1.17 57.558l7.667-1.465L8.793 69.6l1.59-.305 5.048-14.463 8.512-1.626-7.028 18.58.018.093 7.122 16.02-8.137 1.555-5.326-13.208-1.822.348-.052 14.236-7.67 1.467M25.16 77.978l.036-25.012 7.575-1.447-.076 24.533c-.027.88.022 1.647.112 2.114.15.797.718.98 1.374.854.42-.08.785-.197 1.18-.418l-.092 7.155c-.58.256-1.546.538-2.387.7-3.226.615-6.464.41-7.463-4.84-.187-.982-.326-2.218-.257-3.64M37.57 50.602l7.387-1.412-.012 6.557-7.387 1.41.01-6.555zm-.087 9.727l7.575-1.45-.083 25.02-7.575 1.45.083-25.02zM58.418 55.745c2.385-.456 5.166-.356 7.197 1.15l-2.686 6c-.94-.6-2.29-.826-3.366-.62-3.787.724-5.135 5.35-4.484 8.77.49 2.578 1.81 4.413 4.428 3.913 1.59-.304 3.142-1.572 4.226-2.75l2.95 5.312c-1.728 2.126-4.767 3.727-7.666 4.28-6.874 1.314-10.534-2.89-11.614-8.56-1.39-7.307 2.082-15.788 11.014-17.495M67.983 44.79l7.575-1.448-.02 17.968 1.45-.277 3.206-8.867 8.043-1.537-5.15 13.17.02.093 5.702 11.632-7.763 1.483-3.84-8.976-1.73.33.005 9.71-7.575 1.447M89.987 50.294l7.248-1.385.014 3.638c-.036.832-.136 1.58-.136 1.58l.094-.02c.85-3.17 2.893-6.183 5.464-6.675.422-.08.758-.096 1.197-.083l-.018 8.063c-.39-.022-.82.01-1.43.128-3.552.68-4.903 4.53-4.9 8.366l-.042 9.96-7.575 1.45.082-25.022zM105.094 63.867l.062-16.47 7.53-1.44-.048 15.79c.036.186.042.476.105.804.152.797.528 1.502 1.463 1.323 2.2-.42 2.753-4.12 2.73-5.766l.05-12.973 7.577-1.447-.083 25.02-7.248 1.385.02-1.17c.015-.68.078-1.373.078-1.373l-.094.017c-1.12 2.01-2.983 3.677-5.648 4.187-3.975.76-5.67-1.78-6.26-4.873-.186-.983-.233-1.994-.234-3.013M138.34 59.94c2.058-.393 3.902-4.192 2.814-9.908-.366-1.92-1.253-3.014-2.702-2.737-3.413.653-3.378 7.2-2.86 9.918.356 1.874 1.252 3.014 2.748 2.728zm-10.117-26.663l7.575-1.448-.044 9.184c.004 1.553-.048 2.29-.048 2.29l.093-.017c.648-1.678 2.61-2.83 4.434-3.178 4.302-.823 7.403 2.226 8.527 8.13 1.615 8.478-1.988 16.79-8.44 18.023-2.058.393-4.163-.225-5.37-1.984l-.094.016s.17.89.154 1.573l-.035.83-6.875 1.315.123-34.738zM151.616 38.516l7.248-1.385.015 3.64c-.037.832-.138 1.58-.138 1.58l.095-.02c.85-3.17 2.893-6.184 5.465-6.675.42-.08.757-.096 1.195-.083l-.015 8.063c-.392-.022-.822.01-1.43.128-3.554.678-4.904 4.53-4.9 8.365l-.043 9.96-7.576 1.45.082-25.022zM167.102 25.846l7.388-1.412-.012 6.557-7.388 1.413.012-6.557zm-.087 9.727l7.576-1.447-.082 25.02-7.575 1.448.082-25.02zM178.245 23.717l7.576-1.448-.02 17.967 1.45-.277 3.206-8.867 8.044-1.537-5.15 13.17.018.095 5.704 11.632-7.762 1.483-3.842-8.976-1.73.33.007 9.71-7.576 1.446"/></g><path fill="#FEEC04" d="M.122 56.51l7.668-1.466-.044 13.506 1.59-.304 5.048-14.463 8.51-1.626-7.027 18.58.018.093 7.122 16.02-8.137 1.556-5.326-13.208-1.823.348-.05 14.236L0 91.248M24.113 76.93l.036-25.013 7.574-1.447-.078 24.533c-.026.88.023 1.647.112 2.115.152.797.72.98 1.375.854.42-.08.785-.198 1.18-.42l-.092 7.156c-.58.256-1.545.538-2.386.7-3.227.615-6.465.41-7.464-4.84-.187-.982-.326-2.218-.257-3.64M36.522 49.553l7.388-1.412-.012 6.558-7.388 1.41.012-6.555zm-.086 9.726l7.575-1.448-.082 25.02-7.575 1.448.083-25.02zM57.37 54.696c2.386-.456 5.167-.356 7.198 1.15l-2.686 6c-.938-.6-2.29-.826-3.365-.62-3.788.724-5.135 5.35-4.484 8.77.49 2.577 1.81 4.413 4.428 3.913 1.59-.305 3.143-1.573 4.226-2.75l2.95 5.31c-1.728 2.127-4.766 3.727-7.665 4.282-6.873 1.313-10.533-2.89-11.613-8.56-1.39-7.308 2.082-15.79 11.014-17.496M66.935 43.74l7.576-1.447-.02 17.968 1.45-.276 3.206-8.867 8.044-1.537-5.15 13.17.02.094 5.702 11.632L80 75.96l-3.84-8.977-1.73.33.005 9.71-7.575 1.447M88.94 49.245l7.248-1.385.014 3.64c-.035.83-.135 1.58-.135 1.58l.094-.02c.85-3.172 2.893-6.185 5.465-6.676.422-.08.758-.096 1.197-.083l-.017 8.064c-.39-.022-.82.01-1.43.128-3.552.678-4.903 4.53-4.9 8.365l-.042 9.96-7.575 1.45.082-25.022zM104.047 62.818l.062-16.472 7.528-1.44-.047 15.79c.037.188.043.478.106.806.15.796.528 1.5 1.463 1.322 2.197-.42 2.752-4.12 2.73-5.766l.05-12.973 7.575-1.447-.082 25.02-7.248 1.385.02-1.17c.015-.68.078-1.373.078-1.373l-.094.018c-1.12 2.01-2.984 3.677-5.65 4.187-3.974.76-5.67-1.78-6.26-4.873-.185-.984-.233-1.995-.233-3.014M137.292 58.892c2.06-.394 3.903-4.193 2.815-9.91-.366-1.92-1.253-3.013-2.702-2.736-3.414.653-3.378 7.2-2.86 9.918.356 1.874 1.252 3.014 2.747 2.728zm-10.116-26.664l7.575-1.448-.043 9.185c.004 1.553-.05 2.29-.05 2.29l.095-.017c.65-1.678 2.61-2.83 4.435-3.178 4.302-.822 7.403 2.227 8.526 8.13 1.615 8.48-1.988 16.79-8.44 18.024-2.058.393-4.163-.225-5.37-1.984l-.094.017s.168.89.153 1.573l-.035.832-6.875 1.314.123-34.738zM150.57 37.467l7.247-1.385.014 3.64c-.034.83-.135 1.578-.135 1.578l.095-.018c.85-3.172 2.893-6.185 5.464-6.676.42-.08.758-.096 1.196-.083l-.015 8.063c-.393-.022-.822.01-1.43.128-3.554.678-4.904 4.53-4.9 8.365l-.043 9.96-7.575 1.448.082-25.02zM166.055 24.797l7.388-1.412-.012 6.557-7.387 1.412.012-6.557zm-.087 9.727l7.576-1.448-.083 25.02-7.574 1.45.082-25.022zM177.198 22.668l7.575-1.448-.02 17.968 1.45-.277 3.206-8.866 8.043-1.537-5.15 13.17.018.095 5.705 11.63-7.763 1.484-3.84-8.976-1.73.33.006 9.71-7.576 1.447"/></g></svg>